<svg width="60" height="53" viewBox="0 0 60 53" fill="none" xmlns="http://www.w3.org/2000/svg">
<path d="M40.2148 4.89551C40.6771 4.89577 41.0518 5.27103 41.0518 5.7334C41.0516 6.19558 40.677 6.57006 40.2148 6.57031C36.7691 6.57031 33.6638 8.80309 32.5518 12.0381L32.4512 12.3545C32.3329 12.754 31.9423 12.9986 31.54 12.9453L31.5322 12.9561L31.4092 12.9189C30.9661 12.7868 30.7134 12.3205 30.8457 11.877L30.9648 11.5029C32.277 7.66961 35.9136 4.89551 40.2148 4.89551Z" fill="#F65F18" stroke="#F9FFF9" stroke-width="0.398666"/>
<path d="M49.1502 37.0097H45.3205C44.968 37.0097 44.6821 36.7238 44.6821 36.3714C44.6821 36.019 44.968 35.7331 45.3205 35.7331H49.1502C54.4293 35.7331 58.7246 31.4378 58.7246 26.1586C58.7246 20.8795 54.4293 16.5842 49.1502 16.5842H49.0581C48.873 16.5842 48.697 16.504 48.5757 16.364C48.4544 16.224 48.3997 16.0385 48.4262 15.8552C48.4832 15.4576 48.5119 15.0582 48.5119 14.6693C48.5119 10.0941 44.7892 6.37145 40.214 6.37145C38.4341 6.37145 36.7366 6.92768 35.305 7.9804C34.9904 8.21156 34.5436 8.10898 34.3617 7.76292C30.3072 0.0423106 19.7172 -0.994489 14.2268 5.72177C11.9139 8.55123 11.0052 12.2319 11.7334 15.8192C11.8136 16.2154 11.5104 16.5847 11.1078 16.5847H10.8521C5.57294 16.5847 1.27763 20.88 1.27763 26.1591C1.27763 31.4383 5.57294 35.7336 10.8521 35.7336H14.6818C15.0342 35.7336 15.3201 36.0194 15.3201 36.3719C15.3201 36.7243 15.0342 37.0102 14.6818 37.0102H10.8521C4.8689 37.0102 0.000976562 32.1423 0.000976562 26.1591C0.000976562 20.3438 4.5994 15.5821 10.351 15.3195C9.81072 11.5977 10.8439 7.8436 13.2383 4.91388C19.1166 -2.27742 30.3818 -1.47137 35.1438 6.54745C36.663 5.59502 38.4014 5.09537 40.2138 5.09537C45.7569 5.09537 50.1493 9.81332 49.765 15.3254C55.4636 15.645 60.001 20.3816 60.001 26.1586C60.001 32.1423 55.133 37.0097 49.1499 37.0097L49.1502 37.0097Z" fill="#F65F18"/>
<path d="M29.916 19.854C38.825 19.8542 46.0723 27.1022 46.0723 36.0112C46.072 44.9199 38.8248 52.1672 29.916 52.1675C21.0071 52.1675 13.759 44.9202 13.7588 36.0112C13.7588 27.1022 21.0068 19.854 29.916 19.854ZM29.916 21.5298C21.9312 21.5298 15.4346 28.0265 15.4346 36.0112C15.4348 43.9959 21.9314 50.4917 29.916 50.4917C37.9004 50.4915 44.3963 43.9956 44.3965 36.0112C44.3965 28.0265 37.9005 21.53 29.916 21.5298Z" fill="#F65F18" stroke="#F9FFF9" stroke-width="0.398666"/>
<path d="M30.208 29.6182C30.5759 29.6184 30.874 29.9172 30.874 30.2852V42.4346C30.874 42.8029 30.5758 43.1013 30.208 43.1016C29.8399 43.1016 29.541 42.8027 29.541 42.4346V30.2852C29.541 29.9171 29.8399 29.6182 30.208 29.6182Z" fill="#F65F18" stroke="#483EA8" stroke-width="0.398666"/>
<path d="M29.8398 29.7285C30.0985 29.5577 30.45 29.5869 30.6777 29.8145L34.417 33.5527L34.502 33.6572C34.6485 33.879 34.6483 34.1688 34.502 34.3906L34.417 34.4951C34.3193 34.5932 34.1982 34.6544 34.0723 34.6787L33.9453 34.6904C33.8176 34.6904 33.6891 34.6543 33.5781 34.5811L33.4736 34.4951L30.2061 31.2285L26.9395 34.4951C26.7118 34.7231 26.3604 34.7519 26.1016 34.5811L25.9971 34.4951C25.7368 34.2347 25.7367 33.8131 25.9971 33.5527L29.7354 29.8145L29.8398 29.7285Z" fill="#F65F18" stroke="#483EA8" stroke-width="0.398666"/>
</svg>
