<svg width="14" height="19" viewBox="0 0 14 19" fill="none" xmlns="http://www.w3.org/2000/svg">
<path fill-rule="evenodd" clip-rule="evenodd" d="M3.3825 0.99C3.44098 0.915221 3.51572 0.854745 3.60105 0.81316C3.68639 0.771576 3.78007 0.749976 3.875 0.75H10.125C10.2199 0.750026 10.3136 0.771679 10.3989 0.813316C10.4843 0.854953 10.559 0.915478 10.6174 0.990299C10.6758 1.06512 10.7165 1.15227 10.7362 1.24513C10.7559 1.338 10.7542 1.43414 10.7312 1.52625L10.6125 2H12.625C12.7908 2 12.9497 2.06585 13.0669 2.18306C13.1842 2.30027 13.25 2.45924 13.25 2.625V17.625C13.25 17.7908 13.1842 17.9497 13.0669 18.0669C12.9497 18.1842 12.7908 18.25 12.625 18.25H1.375C1.20924 18.25 1.05027 18.1842 0.933058 18.0669C0.815848 17.9497 0.75 17.7908 0.75 17.625V2.625C0.75 2.45924 0.815848 2.30027 0.933058 2.18306C1.05027 2.06585 1.20924 2 1.375 2H3.3875L3.26875 1.52625C3.24554 1.43419 3.24361 1.33806 3.2631 1.24514C3.2826 1.15222 3.32425 1.06497 3.3825 0.99ZM9.325 2H4.675L4.9875 3.25H9.0125L9.325 2ZM10.75 14.5H3.25V13.25H10.75V14.5ZM4.5 12L6.375 11.375L10.125 7.625L8.875 6.375L5.125 10.125L4.5 12Z" fill="#5C5F6A"/>
</svg>
