<svg width="32" height="32" viewBox="0 0 32 32" fill="none" xmlns="http://www.w3.org/2000/svg">
<path d="M0 8C0 3.58172 3.58172 0 8 0H24C28.4183 0 32 3.58172 32 8V24C32 28.4183 28.4183 32 24 32H8C3.58172 32 0 28.4183 0 24V8Z" fill="#DDE1E6"/>
<path d="M23.9536 15.204C24.207 15.5593 24.3337 15.7369 24.3337 15.9998C24.3337 16.2628 24.207 16.4404 23.9536 16.7957C22.8152 18.392 19.908 21.8332 16.0003 21.8332C12.0926 21.8332 9.18541 18.392 8.04703 16.7957C7.79367 16.4404 7.66699 16.2628 7.66699 15.9998C7.66699 15.7369 7.79367 15.5593 8.04703 15.204C9.18541 13.6077 12.0926 10.1665 16.0003 10.1665C19.908 10.1665 22.8152 13.6077 23.9536 15.204Z" stroke="#4A4A4A" stroke-width="1.5"/>
<path d="M18.5 16C18.5 14.6193 17.3807 13.5 16 13.5C14.6193 13.5 13.5 14.6193 13.5 16C13.5 17.3807 14.6193 18.5 16 18.5C17.3807 18.5 18.5 17.3807 18.5 16Z" stroke="#4A4A4A" stroke-width="1.5"/>
</svg>
