<svg width="48" height="48" viewBox="0 0 48 48" fill="none" xmlns="http://www.w3.org/2000/svg">
<rect x="0.5" y="0.5" width="47" height="47" rx="9.5" fill="#FAFAFA"/>
<rect x="0.5" y="0.5" width="47" height="47" rx="9.5" stroke="#CBD5E0"/>
<path d="M20 20H20.01M14 17.2L14 21.6745C14 22.1637 14 22.4083 14.0553 22.6385C14.1043 22.8425 14.1851 23.0376 14.2947 23.2166C14.4184 23.4184 14.5914 23.5914 14.9373 23.9373L22.6059 31.6059C23.7939 32.7939 24.388 33.388 25.0729 33.6105C25.6755 33.8063 26.3245 33.8063 26.927 33.6105C27.612 33.388 28.2061 32.7939 29.3941 31.6059L31.6059 29.3941C32.7939 28.2061 33.388 27.612 33.6105 26.927C33.8063 26.3245 33.8063 25.6755 33.6105 25.0729C33.388 24.388 32.7939 23.7939 31.6059 22.6059L23.9373 14.9373C23.5914 14.5914 23.4184 14.4184 23.2166 14.2947C23.0376 14.1851 22.8425 14.1043 22.6385 14.0553C22.4083 14 22.1637 14 21.6745 14L17.2 14C16.0799 14 15.5198 14 15.092 14.218C14.7157 14.4097 14.4097 14.7157 14.218 15.092C14 15.5198 14 16.0799 14 17.2ZM20.5 20C20.5 20.2761 20.2761 20.5 20 20.5C19.7239 20.5 19.5 20.2761 19.5 20C19.5 19.7239 19.7239 19.5 20 19.5C20.2761 19.5 20.5 19.7239 20.5 20Z" stroke="#4A4A4A" stroke-width="2" stroke-linecap="round" stroke-linejoin="round"/>
</svg>
