<svg width="50" height="50" viewBox="0 0 50 50" fill="none" xmlns="http://www.w3.org/2000/svg">
<circle cx="25" cy="25" r="25" fill="#F65F18"/>
<path d="M28.1248 13.625C28.7345 13.6248 29.3218 13.8551 29.7688 14.2696C30.2159 14.6842 30.4897 15.2524 30.5355 15.8604L30.5415 16.0417C30.5415 16.3376 30.6502 16.6233 30.8469 16.8444C31.0435 17.0656 31.3145 17.2069 31.6085 17.2415L31.7498 17.25H32.9582C33.8828 17.2499 34.7725 17.6032 35.4452 18.2376C36.118 18.8719 36.5229 19.7393 36.5771 20.6623L36.5832 20.875V31.75C36.5832 32.6746 36.2299 33.5643 35.5956 34.2371C34.9613 34.9098 34.0939 35.3147 33.1708 35.369L32.9582 35.375H16.0415C15.1169 35.3751 14.2272 35.0218 13.5544 34.3874C12.8817 33.7531 12.4768 32.8857 12.4225 31.9627L12.4165 31.75V20.875C12.4165 19.9504 12.7697 19.0607 13.4041 18.3879C14.0384 17.7152 14.9058 17.3103 15.8288 17.256L16.0415 17.25H17.2498C17.5703 17.25 17.8777 17.1227 18.1043 16.8961C18.3309 16.6695 18.4582 16.3621 18.4582 16.0417C18.458 15.432 18.6882 14.8447 19.1028 14.3977C19.5174 13.9506 20.0856 13.6768 20.6936 13.631L20.8748 13.625H28.1248ZM24.4998 22.0833C23.6016 22.0833 22.7352 22.4167 22.0688 23.0191C21.4024 23.6214 20.9834 24.4497 20.893 25.3434L20.8797 25.5271L20.8748 25.7083L20.8797 25.8896C20.9151 26.5979 21.1576 27.2803 21.5771 27.8523C21.9966 28.4242 22.5746 28.8605 23.2396 29.1071C23.9046 29.3537 24.6273 29.3999 25.3182 29.2398C26.0092 29.0797 26.638 28.7205 27.1268 28.2066C27.6156 27.6927 27.9429 27.0466 28.0682 26.3485C28.1934 25.6504 28.1111 24.9309 27.8315 24.2791C27.5519 23.6273 27.0872 23.0719 26.495 22.6816C25.9028 22.2913 25.2091 22.0833 24.4998 22.0833Z" fill="white"/>
</svg>
