<svg width="32" height="32" viewBox="0 0 32 32" fill="none" xmlns="http://www.w3.org/2000/svg">
<g clip-path="url(#clip0_2091_35658)">
<path d="M0 8C0 3.58172 3.58172 0 8 0H24C28.4183 0 32 3.58172 32 8V24C32 28.4183 28.4183 32 24 32H8C3.58172 32 0 28.4183 0 24V8Z" fill="#DDE1E6"/>
<path d="M9.4375 14.125C9.72477 14.125 10.0092 14.1816 10.2746 14.2915C10.54 14.4014 10.7812 14.5626 10.9843 14.7657C11.1874 14.9688 11.3486 15.21 11.4585 15.4754C11.5684 15.7408 11.625 16.0252 11.625 16.3125C11.625 16.5998 11.5684 16.8842 11.4585 17.1496C11.3486 17.415 11.1874 17.6562 10.9843 17.8593C10.7812 18.0624 10.54 18.2236 10.2746 18.3335C10.0092 18.4434 9.72477 18.5 9.4375 18.5C8.85734 18.5 8.30094 18.2695 7.8907 17.8593C7.48047 17.4491 7.25 16.8927 7.25 16.3125C7.25 15.7323 7.48047 15.1759 7.8907 14.7657C8.30094 14.3555 8.85734 14.125 9.4375 14.125ZM16 14.125C16.2873 14.125 16.5717 14.1816 16.8371 14.2915C17.1025 14.4014 17.3437 14.5626 17.5468 14.7657C17.7499 14.9688 17.9111 15.21 18.021 15.4754C18.1309 15.7408 18.1875 16.0252 18.1875 16.3125C18.1875 16.5998 18.1309 16.8842 18.021 17.1496C17.9111 17.415 17.7499 17.6562 17.5468 17.8593C17.3437 18.0624 17.1025 18.2236 16.8371 18.3335C16.5717 18.4434 16.2873 18.5 16 18.5C15.4198 18.5 14.8634 18.2695 14.4532 17.8593C14.043 17.4491 13.8125 16.8927 13.8125 16.3125C13.8125 15.7323 14.043 15.1759 14.4532 14.7657C14.8634 14.3555 15.4198 14.125 16 14.125ZM22.5625 14.125C22.8498 14.125 23.1342 14.1816 23.3996 14.2915C23.665 14.4014 23.9062 14.5626 24.1093 14.7657C24.3124 14.9688 24.4736 15.21 24.5835 15.4754C24.6934 15.7408 24.75 16.0252 24.75 16.3125C24.75 16.5998 24.6934 16.8842 24.5835 17.1496C24.4736 17.415 24.3124 17.6562 24.1093 17.8593C23.9062 18.0624 23.665 18.2236 23.3996 18.3335C23.1342 18.4434 22.8498 18.5 22.5625 18.5C21.9823 18.5 21.4259 18.2695 21.0157 17.8593C20.6055 17.4491 20.375 16.8927 20.375 16.3125C20.375 15.7323 20.6055 15.1759 21.0157 14.7657C21.4259 14.3555 21.9823 14.125 22.5625 14.125Z" fill="#4A4A4A"/>
</g>
<defs>
<clipPath id="clip0_2091_35658">
<rect width="32" height="32" fill="white"/>
</clipPath>
</defs>
</svg>
