<svg width="20" height="21" viewBox="0 0 20 21" fill="none" xmlns="http://www.w3.org/2000/svg">
<path d="M12.9992 15.3822C11.3805 16.6799 9.34346 17.2922 7.30276 17.0942C5.26207 16.8963 3.3712 15.903 2.01517 14.3166C0.659145 12.7303 -0.0600836 10.6701 0.00393439 8.55565C0.0679523 6.44118 0.910403 4.4314 2.35975 2.93552C3.8091 1.43963 5.75636 0.570134 7.80505 0.504061C9.85374 0.437987 11.8498 1.18031 13.3868 2.57987C14.9238 3.97944 15.8862 5.93102 16.078 8.03723C16.2698 10.1434 15.6766 12.2459 14.4192 13.9166L19.0908 18.7201C19.4862 19.1267 19.4868 19.7872 19.0921 20.1946C18.6974 20.6021 18.057 20.6017 17.6627 20.1939L13.0093 15.3822H12.9992ZM8.06449 15.0495C8.858 15.0495 9.64375 14.8882 10.3769 14.5748C11.11 14.2614 11.7761 13.802 12.3372 13.2229C12.8983 12.6438 13.3434 11.9563 13.647 11.1996C13.9507 10.443 14.107 9.63201 14.107 8.81302C14.107 7.99403 13.9507 7.18306 13.647 6.42641C13.3434 5.66976 12.8983 4.98225 12.3372 4.40314C11.7761 3.82402 11.11 3.36465 10.3769 3.05123C9.64375 2.73782 8.858 2.57651 8.06449 2.57651C6.46192 2.57651 4.92498 3.23356 3.79179 4.40314C2.6586 5.57271 2.02198 7.159 2.02198 8.81302C2.02198 10.467 2.6586 12.0533 3.79179 13.2229C4.92498 14.3925 6.46192 15.0495 8.06449 15.0495Z" fill="#5C5F6A"/>
</svg>
